# xmcd
#
# Track frame offsets:
#	150
#	14652
#	30151
#	44762
#	58179
#	72459
#	87174
#	104167
#	118437
#	133525
#	147216
#	161447
#	175121
#	188011
#	204318
#	219092
#	234940
#	251800
#	267793
#	285946
#	305151
#	320264
#
# Disc length: 4475 seconds
#
# Revision: 1
# Processed by: cddbd v1.5.2PL0 Copyright (c) Steve Scherf et al.
# Submitted via: audiograbber 1.80
#
DISCID=41117916
DTITLE=JOÃO NETO and FREDRICO - AO VIVO EM SÃO JOSÉ DO RIO PRETO
DYEAR=1900
DGENRE=
TTITLE0=ENQUANTO O SOL BRILHAR
TTITLE1=MENINA
TTITLE2=DETONOU
TTITLE3=AGARRA AGARRA
TTITLE4=EU QUERO TE NAMORAR
TTITLE5=MEU ANJO
TTITLE6=VOU TE PROCURAR
TTITLE7=DIFÍCIL
TTITLE8=É PRA ACABAR
TTITLE9=PEDE PRA SAIR
TTITLE10=CHUVA DE VERÃO
TTITLE11=AQUI NÃO PICA PAU
TTITLE12=GALERA DO BOTECO
TTITLE13=SE ENTREGA DE UMA VEZ
TTITLE14=FILME DE AMOR
TTITLE15=PRA DIZER ADEUS
TTITLE16=EU E VOCÊ
TTITLE17=POUT-PORRIE
TTITLE18=TEU OLHAR
TTITLE19=POUT-PORRIE
TTITLE20=SÓ DE VOCÊ
TTITLE21=PEGA FOGO CABARÉ
EXTD=
EXTT0=
EXTT1=
EXTT2=
EXTT3=
EXTT4=
EXTT5=
EXTT6=
EXTT7=
EXTT8=
EXTT9=
EXTT10=
EXTT11=
EXTT12=
EXTT13=
EXTT14=
EXTT15=
EXTT16=
EXTT17=
EXTT18=
EXTT19=
EXTT20=
EXTT21=
PLAYORDER=
